<svg width="144" height="20" viewBox="0 0 144 20" fill="none" xmlns="http://www.w3.org/2000/svg">
<path d="M134 0L136.245 6.90983H143.511L137.633 11.1803L139.878 18.0902L134 13.8197L128.122 18.0902L130.367 11.1803L124.489 6.90983H131.755L134 0Z" fill="#F5F5F5"/>
<path d="M72 0L74.2451 6.90983H81.5106L75.6327 11.1803L77.8779 18.0902L72 13.8197L66.1221 18.0902L68.3673 11.1803L62.4894 6.90983H69.7549L72 0Z" fill="#F5F5F5"/>
<path d="M103 0L105.245 6.90983H112.511L106.633 11.1803L108.878 18.0902L103 13.8197L97.1221 18.0902L99.3673 11.1803L93.4894 6.90983H100.755L103 0Z" fill="#F5F5F5"/>
<path d="M10 0L12.2451 6.90983H19.5106L13.6327 11.1803L15.8779 18.0902L10 13.8197L4.12215 18.0902L6.36729 11.1803L0.489435 6.90983H7.75486L10 0Z" fill="#F5F5F5"/>
<path d="M41 0L43.2451 6.90983H50.5106L44.6327 11.1803L46.8779 18.0902L41 13.8197L35.1221 18.0902L37.3673 11.1803L31.4894 6.90983H38.7549L41 0Z" fill="#F5F5F5"/>
</svg>
